<svg width="44" height="44" viewBox="0 0 44 44" fill="none" xmlns="http://www.w3.org/2000/svg">
<g clip-path="url(#clip0_2079_1018)">
<path d="M10.2421 14.1068H1.40899C1.01696 14.1068 0.69931 14.4246 0.69931 14.8165V43.1934C0.69931 43.5854 1.01696 43.903 1.40899 43.903H10.2421C10.6341 43.903 10.9517 43.5854 10.9517 43.1934V14.8165C10.9517 14.4246 10.6341 14.1068 10.2421 14.1068Z" fill="white"/>
<path d="M5.82872 0C2.61474 0 0 2.6119 0 5.82234C0 9.03419 2.61474 11.6471 5.82872 11.6471C9.04015 11.6471 11.6528 9.03405 11.6528 5.82234C11.6529 2.6119 9.04015 0 5.82872 0Z" fill="white"/>
<path d="M32.7096 13.4016C29.1619 13.4016 26.5394 14.9266 24.9487 16.6595V14.8165C24.9487 14.4246 24.631 14.1068 24.239 14.1068H15.7798C15.3878 14.1068 15.0701 14.4246 15.0701 14.8165V43.1934C15.0701 43.5854 15.3878 43.9031 15.7798 43.9031H24.5936C24.9856 43.9031 25.3033 43.5854 25.3033 43.1934V29.1534C25.3033 24.4223 26.5883 22.5791 29.8863 22.5791C33.4782 22.5791 33.7636 25.5339 33.7636 29.3968V43.1935C33.7636 43.5855 34.0813 43.9032 34.4733 43.9032H43.2903C43.6823 43.9032 44 43.5855 44 43.1935V27.6283C44 20.5933 42.6586 13.4016 32.7096 13.4016Z" fill="white"/>
</g>
<defs>
<clipPath id="clip0_2079_1018">
<rect width="44" height="44" fill="white"/>
</clipPath>
</defs>
</svg>
